<svg id="Layer_1" height="512" viewBox="0 0 512 512" width="512" xmlns="http://www.w3.org/2000/svg" xmlns:xlink="http://www.w3.org/1999/xlink" data-name="Layer 1"><linearGradient id="linear-gradient" gradientUnits="userSpaceOnUse" x1="120.301" x2="120.301" y1="436.774" y2="212.003"><stop offset=".322" stop-color="#a163f5"/><stop offset=".466" stop-color="#b074ee"/><stop offset=".752" stop-color="#d8a1dd"/><stop offset=".898" stop-color="#efbad3"/></linearGradient><linearGradient id="linear-gradient-3" x1="355.203" x2="355.203" xlink:href="#linear-gradient" y1="436.774" y2="212.003"/><linearGradient id="linear-gradient-4" x1="233.856" x2="233.856" xlink:href="#linear-gradient" y1="436.774" y2="212.003"/><linearGradient id="linear-gradient-5" x1="275.054" x2="275.054" xlink:href="#linear-gradient" y1="436.774" y2="212.003"/><linearGradient id="linear-gradient-6" x1="154.333" x2="154.333" xlink:href="#linear-gradient" y1="436.774" y2="212.003"/><linearGradient id="linear-gradient-9" x1="256" x2="256" xlink:href="#linear-gradient" y1="436.774" y2="212.003"/><path d="m120.3 110.038a6 6 0 0 0 -6 6v6.3a6 6 0 0 0 12 0v-6.3a6 6 0 0 0 -6-6z" fill="url(#linear-gradient)"/><path d="m120.3 135.333a6 6 0 0 0 -6 6v96a6 6 0 0 0 12 0v-96a6 6 0 0 0 -6-6z" fill="url(#linear-gradient)"/><path d="m367.029 419.723h-23.652a6 6 0 0 0 0 12h23.652a6 6 0 0 0 0-12z" fill="url(#linear-gradient-3)"/><path d="m147.089 431.723h173.534a6 6 0 0 0 0-12h-173.534a6 6 0 0 0 0 12z" fill="url(#linear-gradient-4)"/><path d="m178.331 393.377a6 6 0 0 0 6 6h181.447a6 6 0 0 0 0-12h-181.447a6 6 0 0 0 -6 6z" fill="url(#linear-gradient-5)"/><path d="m147.089 399.377h14.487a6 6 0 0 0 0-12h-14.487a6 6 0 0 0 0 12z" fill="url(#linear-gradient-6)"/><path d="m365.778 452.477h-181.447a6 6 0 0 0 0 12h181.447a6 6 0 0 0 0-12z" fill="url(#linear-gradient-5)"/><path d="m161.576 452.477h-14.487a6 6 0 0 0 0 12h14.487a6 6 0 1 0 0-12z" fill="url(#linear-gradient-6)"/><path d="m383.838 71.114h-10.579v-7.549a6 6 0 0 0 -6-6h-8.159v-45.638a6 6 0 0 0 -6-6h-19.654a6 6 0 0 0 -6 6v45.638h-8.162a6 6 0 0 0 -6 6v7.549h-114.568v-7.549a6 6 0 0 0 -6-6h-8.162v-45.638a6 6 0 0 0 -6-6h-19.654a6 6 0 0 0 -6 6v45.638h-8.162a6 6 0 0 0 -6 6v7.549h-10.576a36.041 36.041 0 0 0 -36 36v362.959a36.041 36.041 0 0 0 36 36h255.676a36.041 36.041 0 0 0 36-36v-362.959a36.041 36.041 0 0 0 -36-36zm-44.392-53.187h7.654v39.638h-7.651zm-14.162 51.638h35.975v17.067h-35.975zm-160.384-51.638h7.651v39.638h-7.651zm-14.159 51.638h35.975v17.067h-35.975zm257.1 400.508a24 24 0 0 1 -24 24h-255.679a24 24 0 0 1 -24-24v-112.843h75.838a6 6 0 0 0 0-12h-15.192v-10.176h182.384v10.176h-127.192a6 6 0 0 0 0 12h187.838zm-122.959-334.945a23.565 23.565 0 0 0 12.9-3.83 67.234 67.234 0 0 1 4 21.825c-4.032-9.361-12.046-14.664-18.532-18.087a6 6 0 0 0 -8.616 3.828c-1.862 7.322-13.744 8.415-20.661 8.415-4.283 0-17.3 0-20.19-6.994l-.037-.095a6 6 0 0 0 -8.989-2.751c-7.316 5.039-14.76 11.7-16.662 23.108a49.617 49.617 0 0 1 3.115-24.819l.4-1.011a2.676 2.676 0 0 1 2.5-1.7 16.492 16.492 0 0 0 16.473-16.474 4.451 4.451 0 0 1 3.442-4.355 7.651 7.651 0 0 0 4.641-3.519c.832.139 1.767.3 2.781.469 20.638 3.5 41.169 6.324 54.919 4.55a11.729 11.729 0 0 1 -11.489 9.436 6 6 0 0 0 0 12zm-73.382 51.416h2.119a6 6 0 0 0 6-6v-14.22c0-6.286 1.95-10.708 7.118-15.283 8.016 8.237 22.031 8.238 27.236 8.238 16.6 0 24.835-5.135 28.906-10.465 6.663 4.7 9.478 10.056 9.478 17.51v14.22a6 6 0 0 0 6 6h1.4a5.854 5.854 0 0 0 2.173.672 1.935 1.935 0 0 1 -1.458 3.216h-2.112a5.977 5.977 0 0 0 -3.817 1.37l-13.779 1.364a15.139 15.139 0 0 1 -14.04-6.587 12.575 12.575 0 0 0 -10.438-5.54h-.093a12.585 12.585 0 0 0 -10.461 5.711 15.066 15.066 0 0 1 -14.437 6.739l-13.781-1.618a5.972 5.972 0 0 0 -3.892-1.439h-2.122a1.944 1.944 0 0 1 0-3.888zm18.4 18.863a27.647 27.647 0 0 0 3.226.19 27 27 0 0 0 22.658-12.286.555.555 0 0 1 .5-.272h.006a.559.559 0 0 1 .5.266 27.123 27.123 0 0 0 25.16 11.8l10.292-1.018a36.358 36.358 0 0 1 -72.484.127zm52.121 36.576v11.417a66.839 66.839 0 0 1 -52.034 0v-11.4a48.2 48.2 0 0 0 52.034-.012zm-58.306 21.766a78.8 78.8 0 0 0 64.578 0l41.531 17.725a32.11 32.11 0 0 1 14.695 15.47h-177.034a32.11 32.11 0 0 1 14.695-15.47zm123.481 45.195v14.11h-182.388v-14.11zm60.646 36.286h-48.653l-.017-38.913a44.2 44.2 0 0 0 -24.139-35.654c-.108-.054-.218-.105-.328-.152l-40.688-17.365v-22.06a48.114 48.114 0 0 0 10.338-29.2 13.933 13.933 0 0 0 5.645-23.573 79 79 0 0 0 -1.829-53.51l-1.556-3.911a23.57 23.57 0 0 0 1.981-9.474v-5.344a6 6 0 0 0 -8.261-5.558c-11.166 4.543-44.374-1.087-56.875-3.2-3.011-.51-5.186-.879-6.541-1.049-4.432-.551-6.7 3.12-7.715 4.883a16.4 16.4 0 0 0 -10.613 15.4 4.478 4.478 0 0 1 -4.473 4.474 14.618 14.618 0 0 0 -13.651 9.262l-.4 1.01a61.559 61.559 0 0 0 0 45.689l.937 2.355a13.929 13.929 0 0 0 6.627 22.547 48.121 48.121 0 0 0 10.357 29.225v22.037l-40.688 17.362c-.11.047-.22.1-.328.152a44.2 44.2 0 0 0 -24.139 35.654c-.014.165-.02.331-.02.5v38.413h-48.651v-238.116a24.027 24.027 0 0 1 24-24h10.579v9.518a6 6 0 0 0 6 6h47.975a6 6 0 0 0 6-6v-9.518h114.568v9.518a6 6 0 0 0 6 6h47.975a6 6 0 0 0 6-6v-9.518h10.579a24.027 24.027 0 0 1 24 24z" fill="url(#linear-gradient-9)"/></svg>